<?xml version="1.0" encoding="utf-8"?>
<!-- Generator: Adobe Illustrator 27.4.0, SVG Export Plug-In . SVG Version: 6.00 Build 0)  -->
<svg version="1.1" id="Слой_1" xmlns="http://www.w3.org/2000/svg" xmlns:xlink="http://www.w3.org/1999/xlink" x="0px" y="0px"
	 viewBox="0 0 1280 1024" style="enable-background:new 0 0 1280 1024;" xml:space="preserve">
<style type="text/css">
	.st0{fill:#3C5A40;}
</style>
<g>
	<circle class="st0" cx="835.7" cy="227.9" r="87.6"/>
	<path class="st0" d="M702.6,278.6c17.9-24.7-22.1-80.5-25.5-85.2c-41.6-56.8-125.2-101.8-196.2-76.5c-9.5,3.4-15.5,6.8-17.4,7.9
		c-56.3,31.6-85,107.3-74.2,191.5c3.2,31.6,6,63.1,8.7,95.2c5.3-25.5,14.2-62.9,33.4-105.2c26.3-59.7,48.4-109.7,81.8-112.6
		c45-3.9,62.3,83.6,140.2,94.9C661.6,289.9,691.6,294.1,702.6,278.6z"/>
	<path class="st0" d="M822.3,347.5c-12.6,12.6-16,80.2,18.7,128.1c33.7,46.8,100.5,70.5,153.9,57.6
		c78.9-18.9,140.7-119.9,119.4-239.9c-12.6,29.5-35.5,75-78.4,118.4c-31.3,31.6-53.7,54.2-77.6,49.7
		c-48.4-9.2-47.1-121.2-98.4-128.1C839.1,330.2,823.1,346.7,822.3,347.5z"/>
	<path class="st0" d="M446.5,547.7c9.5,7.4,23.4,6.8,25.5,15.5c2.6,10.5-15.3,22.9-18.7,25.5C401.2,626.3,150.6,898,161.9,913.5
		c13.9,18.1,425.3-282.5,446.6-255.9c4.2,5.5-10.5,24.2-20.3,37.3c-75.5,95.2-187,116.5-185.7,120.5c1.8,6.6,301.4-3.2,327.4-126
		c25.5-120.5-226.2-279.8-279.8-242C426.5,463,423.1,529.3,446.5,547.7z"/>
</g>
</svg>
