<?xml version="1.0" encoding="utf-8"?>
<!-- Generator: Adobe Illustrator 27.4.0, SVG Export Plug-In . SVG Version: 6.00 Build 0)  -->
<svg version="1.1" id="Слой_1" xmlns="http://www.w3.org/2000/svg" xmlns:xlink="http://www.w3.org/1999/xlink" x="0px" y="0px"
	 viewBox="0 0 1366 768" style="enable-background:new 0 0 1366 768;" xml:space="preserve">
<style type="text/css">
	.st0{font-family:'Forte';}
	.st1{font-size:192.5498px; fill:#ffffff;}
	.st2{fill:#c8d8b0;}
</style>
<text transform="matrix(1 0 0 1 30 443.8475)" class="st0 st1">Sport</text>
<g>
	<circle class="st2" cx="769.9" cy="276" r="33.3"/>
	<path class="st2" d="M719.3,295.3c6.8-9.4-8.4-30.6-9.7-32.4c-15.8-21.6-47.6-38.7-74.6-29.1c-3.6,1.3-5.9,2.6-6.6,3
		c-21.4,12-32.3,40.8-28.2,72.8c1.2,12,2.3,24,3.3,36.2c2-9.7,5.4-23.9,12.7-40c10-22.7,18.4-41.7,31.1-42.8
		c17.1-1.5,23.7,31.8,53.3,36.1C703.7,299.6,715.1,301.2,719.3,295.3z"/>
	<path class="st2" d="M764.8,321.5c-4.8,4.8-6.1,30.5,7.1,48.7c12.8,17.8,38.2,26.8,58.5,21.9c30-7.2,53.5-45.6,45.4-91.2
		c-4.8,11.2-13.5,28.5-29.8,45c-11.9,12-20.4,20.6-29.5,18.9c-18.4-3.5-17.9-46.1-37.4-48.7C771.2,314.9,765.1,321.2,764.8,321.5z"
		/>
	<path class="st2" d="M621.9,397.6c3.6,2.8,8.9,2.6,9.7,5.9c1,4-5.8,8.7-7.1,9.7c-19.8,14.3-115.1,117.6-110.8,123.5
		c5.3,6.9,161.7-107.4,169.8-97.3c1.6,2.1-4,9.2-7.7,14.2c-28.7,36.2-71.1,44.3-70.6,45.8c0.7,2.5,114.6-1.2,124.5-47.9
		c9.7-45.8-86-106.4-106.4-92C614.3,365.4,613,390.6,621.9,397.6z"/>
</g>
<text transform="matrix(1 0 0 1 926.3616 443.8475)" class="st0 st1">Vana</text>
</svg>
