<?xml version="1.0" encoding="utf-8"?>
<!-- Generator: Adobe Illustrator 27.4.0, SVG Export Plug-In . SVG Version: 6.00 Build 0)  -->
<svg version="1.1" id="Слой_1" xmlns="http://www.w3.org/2000/svg" xmlns:xlink="http://www.w3.org/1999/xlink" x="0px" y="0px"
	 viewBox="0 0 1366 768" style="enable-background:new 0 0 1366 768;" xml:space="preserve">
<style type="text/css">
	.st0{enable-background:new    ;}
	.st1{fill:#3C5A40;}
</style>
<g class="st0">
	<path d="M62.2,383.6c-5.4-5.5-9.2-10.3-11.4-14.5c-2.2-4.2-3.3-8.8-3.3-13.6c0-7.3,2.2-14.1,6.6-20.5c4.4-6.4,10.3-11.5,17.8-15.2
		s15.4-5.6,23.9-5.6c9.7,0,17.1,2,22.3,6c5.2,4,7.8,9.7,7.8,17c0,3.5-0.9,7.1-2.8,10.9s-4.5,7.3-7.8,10.5c-2.3,2.3-4.4,4-6.3,5.1
		c-1.9,1.2-3.6,1.7-4.9,1.7c-1.6,0-2.4-1.3-2.4-3.8c0,0.1,0.1-0.9,0.4-2.9c0.4-2.9,0.6-5.6,0.6-7.9c0-3.3-0.5-6.5-1.5-9.8
		c-1-3.3-2.2-6-3.8-8.3c-1.5-2.2-3-3.3-4.4-3.3c-0.7,0-1.5,0.5-2.4,1.6c-1.7,1.8-3,3.9-3.9,6.5c-0.9,2.6-1.4,5-1.4,7.3
		c0,2.8,0.4,5.4,1.2,7.9c0.8,2.4,2.2,4.9,4.2,7.4c2,2.5,4.7,5.3,8,8.3c5.3,4.8,9.3,8.9,12.2,12.5c2.9,3.6,4.9,7.1,6.3,10.7
		c1.3,3.5,2,7.4,2,11.5c0,7.3-1.9,14.3-5.7,21.1c-3.8,6.8-8.9,12.2-15.2,16.4c-6.3,4.2-12.8,6.3-19.5,6.3c-6.4,0-12.6-1.4-18.7-4.1
		c-6.1-2.8-11.8-6.7-17.1-11.8c-5.5-5.5-8.3-10.3-8.3-14.5c0-2.6,1.2-5.1,3.7-7.5c2.5-2.5,5.6-4.6,9.3-6.4c3.7-1.8,6.8-2.6,9.3-2.6
		c1.4,0,2.7,0.4,3.7,1.1c1,0.7,1.9,1.9,2.7,3.7c0.8,1.7,1.6,4.1,2.3,7c1.2,4.2,2.3,7.3,3.3,9.4c1,2,2.4,4.1,4.2,6.1
		c1.9,1.9,3.9,2.8,5.9,2.8c2.5,0,4.5-1,5.9-3c1.4-2,2.2-4.7,2.2-8.1c0-5.4-1.9-10.8-5.7-16.2c-1.1-1.8-2.4-3.4-3.7-4.8
		c-1.3-1.4-4.3-4.1-8.8-8.1C67.4,388.4,65.2,386.4,62.2,383.6z"/>
	<path d="M177.9,382.2l2.9-5.5c2.8-4.9,5.3-8.9,7.7-12.2c2.4-3.2,4.4-5.6,6.3-7.1c1.8-1.5,4-2.7,6.5-3.7c2.1-0.8,4.3-1.2,6.8-1.2
		c4.8,0,9,1.4,12.7,4.2c3.7,2.8,6.5,6.9,8.5,12.1c2,5.3,3,11.3,3,18.1c0,9.8-2.2,19.3-6.6,28.3c-4.4,9.1-10.2,16.4-17.4,22
		c-7.2,5.6-14.6,8.4-22.2,8.4c-4.5,0-8.2-0.9-11.1-2.8c-3-1.9-5.7-5.1-8.2-9.7l-0.6,1.6l-0.6,2.1c-4.1,13.1-7.3,22.7-9.7,28.9
		c-2.4,6.2-4.5,10-6.3,11.3c-1.4,1.3-3,2-4.8,2c-3.6,0-6.4-1.8-8.4-5.3c-2-3.5-3-8.4-3-14.8c0-6.9,0.8-15.2,2.3-24.8
		c1.5-9.7,3.6-19.5,6.3-29.5c2.7-10,5.6-19.1,8.9-27.4c2.1-5,4.5-9.4,7-13.2c2.6-3.8,5-6.5,7.3-8.2c1.7-1,3.5-1.5,5.4-1.5
		c2.9,0,5.1,0.8,6.7,2.4c1.6,1.6,2.3,3.8,2.3,6.7c0,2.5-0.3,5.2-0.8,8.1c-0.4,2.9-0.7,6.2-1,10L177.9,382.2z M170.7,422.3
		c1.8,5.1,5.1,7.7,10,7.7c3.4,0,6.7-1.6,9.6-4.7c3-3.1,5.4-7.3,7.1-12.6c1.8-5.3,2.7-10.9,2.7-16.7c0-4.6-0.4-8.6-1.1-12
		c-0.7-3.4-1.5-5.1-2.4-5.1c-0.6,0-2.2,1.7-4.8,5c-2.6,3.3-5.1,7.2-7.7,11.6c-5.3,8.5-9.2,16-11.9,22.6
		C171.6,419.8,171.1,421.2,170.7,422.3z"/>
	<path d="M302,349.3c9.3,0,14,1.1,14,3.3c0,2.5-2.1,3.9-6.3,4c-5.1,0.3-9.8,1.8-14.2,4.3c-4.4,2.6-8.3,6.1-11.7,10.5
		c-3.4,4.5-6.1,9.5-8,15c-1.9,5.6-2.9,11.5-2.9,17.7c0,6.8,1.6,12.3,4.8,16.5c3.2,4.2,7.4,6.3,12.5,6.3c4.8,0,8.9-2.4,12.5-7.3
		s5.4-10.6,5.4-17.1c0-5.3-1.1-10.3-3.3-15c-2.2-4.7-5.5-8.6-9.7-11.8c-1.8-1.4-2.7-2.5-2.7-3.1c0-0.9,1.3-2.2,3.9-4
		c2.9-1.9,6.1-3.6,9.7-4.9c3.6-1.3,6.6-2,9-2c2.8,0,5.5,0.7,8,2.2c2.5,1.5,4.8,3.6,6.7,6.3c1.9,2.7,3.4,5.9,4.5,9.4
		c1,3.5,1.6,7.3,1.6,11.3c0,6.6-1.3,13.2-3.8,19.7c-2.5,6.5-5.8,11.7-9.9,15.7c-5.3,5.1-11.6,9.2-19,12.5
		c-7.4,3.2-14.5,4.8-21.2,4.8c-6.5,0-13-1.1-19.4-3.4c-6.4-2.3-11.5-5.2-15.3-8.9c-5-5-7.5-12.1-7.5-21.3c0-7.3,1.8-14.5,5.4-21.8
		c3.6-7.3,8.4-13.9,14.5-19.8c6.1-5.9,12.8-10.6,20.2-14C287,351,294.5,349.3,302,349.3z"/>
	<path d="M372.6,415.2l-0.4,1.9c0,1.1-0.1,2.6-0.4,4.6c-0.3,3.1-0.6,5.6-1,7.5c-0.4,1.9-1.1,3.6-2,4.8c-0.9,1.3-2.1,2.6-3.6,4.1
		c-4.6,4.2-9.2,6.3-13.8,6.3c-3.8,0-6.5-1.4-8.3-4.1c-1.8-2.8-2.7-7.2-2.7-13.4c0-4.9,0.5-10.9,1.6-18.1c1.1-7.2,2.4-13.6,4-19.3
		l0.8-2.4c0-0.4,0.2-1.2,0.6-2.4c2.3-8.5,4.4-14.8,6.4-18.9c1.9-4.1,4.3-7.4,7.1-9.9c2.4-1.9,5.2-2.9,8.3-2.9c4.4,0,7.1,2.7,8.1,8.1
		c0.9-0.8,1.7-1.6,2.5-2.6c1.8-2.2,3.2-3.7,4.2-4.4c1-0.7,2.2-1.1,3.5-1.1c5.4,0,8.1,5.3,8.1,16c0,5.8-0.6,11.5-1.9,16.9
		c-1.3,5.5-2.8,9.9-4.7,13.4c-1.9,3.4-3.8,5.2-5.7,5.2c-2.1,0-3.1-3.9-3.1-11.8c0-4.1-0.2-7.4-0.7-9.7s-1.2-4.2-2.2-5.5
		c-1.9,3.5-3.1,11.5-3.7,24.1C373.1,408.7,372.8,413.3,372.6,415.2z"/>
	<path d="M421,352.9l0.4-1.1c4.1-11.7,7.7-19.9,10.7-24.6c1.4-2.3,3.5-4.3,6-6c4.8-3.1,9.4-4.6,13.6-4.6c2.5,0,4.4,0.6,5.7,1.7
		c1.3,1.1,2,2.8,2,4.9c0,1.4-0.9,4.4-2.8,8.8c-3.2,7.4-5.6,14.3-7.2,20.8c1.1,0.1,2.1,0.3,3.1,0.6c3.8,0.6,6.2,1.2,7.4,1.9
		s1.8,2,1.8,3.9c0,3.3-0.8,6.4-2.5,9.2c-1.7,2.8-3.9,4.9-6.7,6.2c-2.1,0.9-5.4,1.6-10.1,1.9c-0.8,2.4-1.7,5.8-2.7,10.1
		c-0.6,3.8-1.2,9-1.9,15.6c-0.4,2.4-0.6,4.7-0.6,6.9c0,9.9,4.8,14.8,14.4,14.8h0.6h0.3c1.1,0,1.7,0.2,1.7,0.6c0,1-1.1,2.7-3.2,5.1
		c-2.1,2.4-4.5,4.5-7.1,6.3c-2.8,1.9-5.8,3.4-9,4.5c-3.3,1.1-6.2,1.7-8.9,1.7c-6.6,0-11.9-2.2-16.1-6.7c-4.1-4.5-6.2-10.3-6.2-17.7
		c0-3.1,0.5-7.2,1.6-12.3c1.1-5.1,2.8-11.9,5.1-20.4c0.4-1.5,0.8-3.1,1.2-4.7c0.4-1.7,0.7-2.6,0.8-3c-2.5-0.1-4.3-0.6-5.4-1.6
		c-1.1-1-1.6-2.6-1.6-4.9c0-3.9,1.5-7.7,4.6-11.2C413.4,356,416.9,353.8,421,352.9z"/>
</g>
<g>
	<circle class="st1" cx="769.9" cy="276" r="33.3"/>
	<path class="st1" d="M719.3,295.3c6.8-9.4-8.4-30.6-9.7-32.4c-15.8-21.6-47.6-38.7-74.6-29.1c-3.6,1.3-5.9,2.6-6.6,3
		c-21.4,12-32.3,40.8-28.2,72.8c1.2,12,2.3,24,3.3,36.2c2-9.7,5.4-23.9,12.7-40c10-22.7,18.4-41.7,31.1-42.8
		c17.1-1.5,23.7,31.8,53.3,36.1C703.7,299.6,715.1,301.2,719.3,295.3z"/>
	<path class="st1" d="M764.8,321.5c-4.8,4.8-6.1,30.5,7.1,48.7c12.8,17.8,38.2,26.8,58.5,21.9c30-7.2,53.5-45.6,45.4-91.2
		c-4.8,11.2-13.5,28.5-29.8,45c-11.9,12-20.4,20.6-29.5,18.9c-18.4-3.5-17.9-46.1-37.4-48.7C771.2,314.9,765.1,321.2,764.8,321.5z"
		/>
	<path class="st1" d="M621.9,397.6c3.6,2.8,8.9,2.6,9.7,5.9c1,4-5.8,8.7-7.1,9.7c-19.8,14.3-115.1,117.6-110.8,123.5
		c5.3,6.9,161.7-107.4,169.8-97.3c1.6,2.1-4,9.2-7.7,14.2c-28.7,36.2-71.1,44.3-70.6,45.8c0.7,2.5,114.6-1.2,124.5-47.9
		c9.7-45.8-86-106.4-106.4-92C614.3,365.4,613,390.6,621.9,397.6z"/>
</g>
<g class="st0">
	<path d="M1008.8,330.1c3.6-3.4,7-6.4,10.4-8.7c3.4-2.4,5.7-3.6,6.9-3.6c1.9,0,2.9,1.8,2.9,5.5c0,4.3-0.5,9-1.5,14.1
		c-1,5-2.3,10-4,14.8c-2.8,8.2-6.4,17.3-10.9,27.3c-4.5,10-8.9,18.8-13.2,26.5c-2.8,4.8-6.3,10.7-10.7,17.5
		c-3.4,5.3-6.5,9.1-9.2,11.6c-2.7,2.5-5.8,4.5-9.5,6.1c-3.3,1.3-6.1,2.1-8.5,2.5c-2.9,0.5-5.2,0.8-7,0.8c-3.1,0-5.5-0.8-7.1-2.3
		c-1.9-2.1-3.7-5.7-5.4-10.8c-1.9-6.3-3.9-14.5-5.9-24.8c-2-10.3-3.3-19.2-4-26.8c-0.5-5.3-0.8-12.7-0.8-22.2
		c0-17.4,1.9-27.9,5.6-31.7c1.3-1.3,3.8-2.9,7.4-4.7c3.6-1.8,7.2-3.1,10.7-4.1c2.8-0.8,5.1-1.1,7-1.1c4.6,0,7,2.6,7,7.7
		c0,2.7-0.3,7.9-0.8,15.6c-1,15.5-1.5,27.7-1.5,36.6c0,15.4,0.7,27,2,34.7c0.8,3.7,1.3,6.3,1.7,7.7c2.4-3.1,4.4-6,6-8.7
		c1.6-2.7,3.2-5.5,4.7-8.5c3.1-6.3,5.2-11.1,6.5-14.6c4-9.8,7.1-20.2,9.4-31c1.5-7.7,3.2-13.2,5.1-16.6
		C1003.7,336.2,1005.9,333.2,1008.8,330.1z"/>
	<path d="M1090.8,416.5v0.4l-0.4-0.4c-5.8,6.8-11.2,12.4-16,16.8c-4.9,4.4-9.3,7.6-13.4,9.8c-4.1,2.2-7.9,3.3-11.3,3.3
		c-7,0-12.8-2.3-17.4-7.1c-4.6-4.7-6.9-10.7-6.9-17.9c0-4.5,1.1-9.7,3.4-15.8c2.3-6.1,5.4-12,9.3-17.9c6.6-9.5,14.9-17.6,24.8-24.3
		c10.3-6.8,20.2-10.2,29.7-10.2c8,0,14.6,1.6,19.8,4.9c5.2,3.3,7.8,7.4,7.8,12.5c0,3.7-1.3,7.6-3.9,11.8c3.4,0,5.5,0.4,6.4,1.1
		c0.9,0.7,1.3,2.4,1.3,5c0-0.2-0.2,1-0.5,3.9c-0.4,6.2-0.6,12-0.6,17.4c0,2.8,0,5,0.1,6.4c0.1,1.4,0.2,3.1,0.4,5
		c0.2,1.9,0.4,3.4,0.6,4.5c0.5,2.9,1.3,5.9,2.4,8.7c-3.8,3.7-7.4,6.4-10.8,8.1c-3.4,1.7-7,2.6-10.5,2.6c-9.7,0-14.5-8.1-14.5-24.3
		C1090.6,419,1090.7,417.6,1090.8,416.5z M1096.4,395l-1.8,0.6c-4.5,1.3-7.8,1.9-9.8,1.9c-2.4,0-3.7-0.6-3.7-1.9
		c0-0.4,0.5-1.6,1.5-3.5c3.5-5.3,5.3-10.3,5.3-15c0-2.7-0.5-5.2-1.4-7.4c-0.9-2.2-2-3.3-3.1-3.3c-1,0-2.5,1.1-4.6,3.2
		c-5.8,6.3-10.5,12.8-13.9,19.5c-3.4,6.6-5.1,12.6-5.1,17.8c0,3.4,0.7,6.3,2.1,8.6c1.4,2.3,3.2,3.4,5.3,3.4c1.8,0,5.2-1.9,10.2-5.8
		c5-3.9,10.6-9,16.8-15.4l2.5-2.1L1096.4,395z"/>
	<path d="M1176.8,394.3l5.7-6.6c5.7-6.3,10.3-11.1,13.6-14.2c3.3-3.1,6.4-5.4,9-6.7s5.4-2.1,8.1-2.1c4.4,0,7.6,1.2,9.4,3.6
		c1.8,2.4,2.7,6.5,2.7,12.4c0,2.4-0.3,6-0.8,10.8c-0.8,6.3-1.1,12.3-1.1,17.9c0,6.3,0.3,11.3,0.9,15.2c0.4,2.4,1.1,4.8,2,7.1
		c0.6,2.3,0.9,3.8,0.9,4.6c0,1-0.4,1.8-1.1,2.4c-1.9,1.7-4.5,3.2-7.7,4.4c-3.2,1.3-5.9,1.9-8.1,1.9c-3.6,0-6.8-1.2-9.7-3.7
		c-2.9-2.4-5.2-5.8-6.8-10.2c-1.6-4.3-2.4-9.2-2.4-14.7c0-3.6,0.4-7.9,1.1-12.9l-0.4-0.4c-2.7,3-4.9,5.4-6.5,7.1
		c-1.7,1.8-3.2,3.4-4.7,5c-7,8-13,15.3-17.9,21.7c-1.9,2.5-3.6,4.7-5.2,6.6c-2.3,2.3-5,3.5-7.9,3.5c-4,0-7.3-1.5-9.8-4.5
		c-2.5-3-3.8-6.9-3.8-11.7c0-2.9,0.3-6.5,1-10.8c0.7-4.3,1.6-8.8,2.8-13.7c1.2-4.9,2.5-9.9,4.1-15c1.6-5.1,3.3-10,5.2-14.7
		c2.9-7.7,6.4-13.7,10.5-18.1c2.8-2.8,6.2-4.2,10.2-4.2c6.5,0,9.8,4.2,9.8,12.7c0,6.2-1.3,15.1-3.9,26.7L1176.8,394.3z"/>
	<path d="M1299.1,416.5v0.4l-0.4-0.4c-5.8,6.8-11.2,12.4-16,16.8c-4.9,4.4-9.3,7.6-13.4,9.8c-4.1,2.2-7.9,3.3-11.3,3.3
		c-7,0-12.8-2.3-17.4-7.1c-4.6-4.7-6.9-10.7-6.9-17.9c0-4.5,1.1-9.7,3.4-15.8c2.3-6.1,5.4-12,9.3-17.9c6.6-9.5,14.9-17.6,24.8-24.3
		c10.3-6.8,20.2-10.2,29.7-10.2c8,0,14.6,1.6,19.8,4.9c5.2,3.3,7.8,7.4,7.8,12.5c0,3.7-1.3,7.6-3.9,11.8c3.4,0,5.5,0.4,6.4,1.1
		c0.9,0.7,1.3,2.4,1.3,5c0-0.2-0.2,1-0.5,3.9c-0.4,6.2-0.6,12-0.6,17.4c0,2.8,0,5,0.1,6.4c0.1,1.4,0.2,3.1,0.4,5
		c0.2,1.9,0.4,3.4,0.6,4.5c0.5,2.9,1.3,5.9,2.4,8.7c-3.8,3.7-7.4,6.4-10.8,8.1c-3.4,1.7-7,2.6-10.5,2.6c-9.7,0-14.5-8.1-14.5-24.3
		C1298.9,419,1298.9,417.6,1299.1,416.5z M1304.7,395l-1.8,0.6c-4.5,1.3-7.8,1.9-9.8,1.9c-2.4,0-3.7-0.6-3.7-1.9
		c0-0.4,0.5-1.6,1.5-3.5c3.5-5.3,5.3-10.3,5.3-15c0-2.7-0.5-5.2-1.4-7.4c-0.9-2.2-2-3.3-3.1-3.3c-1,0-2.5,1.1-4.6,3.2
		c-5.8,6.3-10.5,12.8-13.9,19.5c-3.4,6.6-5.1,12.6-5.1,17.8c0,3.4,0.7,6.3,2.1,8.6c1.4,2.3,3.2,3.4,5.3,3.4c1.8,0,5.2-1.9,10.2-5.8
		c5-3.9,10.6-9,16.8-15.4l2.5-2.1L1304.7,395z"/>
</g>
</svg>
