<?xml version="1.0" encoding="utf-8"?>
<!-- Generator: Adobe Illustrator 27.4.0, SVG Export Plug-In . SVG Version: 6.00 Build 0)  -->
<svg version="1.1" id="Слой_1" xmlns="http://www.w3.org/2000/svg" xmlns:xlink="http://www.w3.org/1999/xlink" x="0px" y="0px"
	 viewBox="0 0 1080 100" style="enable-background:new 0 0 1080 1080;" xml:space="preserve">
<style type="text/css">
	.st0{font-family:'Forte';}
	.st1{font-size:133.9854px;}
	.st2{fill:#224B08;}
</style>
<text transform="matrix(1 0 0 1 85.0387 581.6447)" class="st0 st1">Sport</text>
<text transform="matrix(1 0 0 1 709.9143 584.7695)" class="st0 st1">Vana</text>
<g>
	<circle class="st2" cx="585.6" cy="480.9" r="20.2"/>
	<path class="st2" d="M554.9,492.6c4.1-5.7-5.1-18.6-5.9-19.7c-9.6-13.1-28.9-23.5-45.3-17.7c-2.2,0.8-3.6,1.6-4,1.8
		c-13,7.3-19.6,24.8-17.1,44.2c0.7,7.3,1.4,14.6,2,22c1.2-5.9,3.3-14.5,7.7-24.3c6.1-13.8,11.2-25.3,18.9-26
		c10.4-0.9,14.4,19.3,32.4,21.9C545.4,495.2,552.3,496.2,554.9,492.6z"/>
	<path class="st2" d="M582.5,508.5c-2.9,2.9-3.7,18.5,4.3,29.6c7.8,10.8,23.2,16.3,35.5,13.3c18.2-4.4,32.5-27.7,27.6-55.4
		c-2.9,6.8-8.2,17.3-18.1,27.3c-7.2,7.3-12.4,12.5-17.9,11.5c-11.2-2.1-10.9-28-22.7-29.6C586.4,504.5,582.7,508.3,582.5,508.5z"/>
	<path class="st2" d="M495.7,554.7c2.2,1.7,5.4,1.6,5.9,3.6c0.6,2.4-3.5,5.3-4.3,5.9c-12,8.7-69.9,71.4-67.3,75
		c3.2,4.2,98.2-65.2,103.1-59.1c1,1.3-2.4,5.6-4.7,8.6c-17.4,22-43.2,26.9-42.9,27.8c0.4,1.5,69.6-0.7,75.6-29.1
		c5.9-27.8-52.2-64.6-64.6-55.9C491.1,535.2,490.3,550.5,495.7,554.7z"/>
</g>
</svg>
